<?xml version="1.0" standalone="no"?>
<!DOCTYPE svg PUBLIC "-//W3C//DTD SVG 20010904//EN"
 "http://www.w3.org/TR/2001/REC-SVG-20010904/DTD/svg10.dtd">
<svg version="1.0" xmlns="http://www.w3.org/2000/svg"
 width="1536.000000pt" height="1024.000000pt" viewBox="0 0 1536.000000 1024.000000"
 preserveAspectRatio="xMidYMid meet">

<g transform="translate(0.000000,1024.000000) scale(0.100000,-0.100000)"
fill="#000000" stroke="none">
<path d="M6975 9155 c-683 -52 -1151 -124 -1595 -245 -862 -236 -1374 -577
-1486 -991 -27 -101 -23 -254 9 -354 70 -214 258 -415 559 -596 121 -74 353
-184 601 -288 361 -151 477 -219 557 -325 107 -142 115 -288 39 -736 -38 -222
-166 -891 -230 -1205 -28 -132 -74 -359 -104 -505 -29 -146 -72 -350 -94 -455
-22 -104 -72 -343 -111 -530 -39 -187 -104 -493 -145 -680 -148 -678 -143
-639 -85 -667 33 -17 184 -18 2723 -18 2933 0 2748 -4 2763 56 7 27 -13 128
-127 654 -33 151 -80 370 -104 485 -24 116 -78 370 -119 565 -109 518 -295
1433 -371 1829 -131 685 -154 852 -135 988 30 216 156 337 500 483 321 135
416 178 565 253 364 186 603 392 705 609 93 199 72 454 -53 647 -66 102 -228
260 -355 345 -259 173 -616 322 -1057 440 -162 43 -498 116 -632 136 -162 25
-198 30 -343 49 -85 11 -216 25 -290 31 -74 6 -187 16 -250 22 -181 17 -1120
19 -1335 3z m1220 -146 c693 -32 1401 -157 1930 -340 329 -113 561 -230 750
-377 151 -117 249 -236 296 -361 30 -80 37 -219 14 -296 -67 -233 -284 -434
-681 -633 -137 -68 -289 -136 -489 -217 -351 -143 -516 -266 -601 -450 -54
-118 -68 -204 -61 -384 7 -189 29 -335 152 -981 67 -356 297 -1481 399 -1955
23 -110 41 -203 39 -207 -4 -9 -4646 -11 -4654 -3 -3 2 25 152 63 332 244
1178 256 1235 374 1843 62 320 126 695 145 844 28 232 -5 442 -91 575 -105
163 -248 254 -655 420 -786 321 -1118 613 -1099 966 8 168 107 333 288 479
426 346 1227 600 2227 705 545 58 1027 70 1654 40z m1826 -6546 l34 -158
-1223 -3 c-673 -1 -1771 -1 -2441 0 l-1216 3 34 158 34 157 2372 0 2372 0 34
-157z m113 -531 c21 -100 37 -185 34 -187 -3 -3 -1154 -4 -2559 -3 l-2555 3
41 187 40 188 2480 -3 2480 -2 39 -183z"/>
<path d="M6432 8137 c-17 -20 -17 -4594 0 -4614 9 -12 138 -13 812 -10 778 3
804 4 893 25 470 110 763 431 862 946 95 488 13 1016 -201 1293 -57 74 -175
184 -241 224 -61 37 -67 45 -39 53 23 8 129 114 178 180 124 164 190 391 201
691 14 387 -84 702 -286 917 -129 138 -282 224 -491 276 l-105 26 -786 3
c-668 4 -787 2 -797 -10z m1564 -182 c381 -66 601 -278 687 -664 28 -128 31
-456 4 -598 -55 -298 -213 -507 -457 -603 l-45 -18 0 -52 0 -52 70 -22 c134
-43 238 -109 337 -214 156 -166 236 -393 254 -717 8 -145 -9 -376 -37 -521
-76 -396 -297 -658 -639 -757 -158 -46 -204 -49 -906 -50 l-664 -2 0 2143 0
2142 654 0 c539 0 669 -3 742 -15z"/>
<path d="M7170 6865 l0 -615 253 0 c184 0 271 4 322 15 185 39 281 136 336
340 19 69 22 107 23 285 1 169 -3 216 -17 269 -39 137 -103 224 -200 270 -97
45 -145 51 -442 51 l-275 0 0 -615z m586 420 c62 -18 117 -70 140 -134 22 -59
31 -349 15 -449 -16 -93 -61 -182 -110 -216 -66 -46 -119 -56 -293 -56 l-158
0 0 435 0 435 178 0 c129 0 192 -4 228 -15z"/>
<path d="M7170 4966 l0 -746 288 0 c312 0 374 7 482 56 70 31 155 115 193 190
60 119 87 271 87 499 0 296 -48 471 -163 593 -60 63 -113 96 -199 124 -57 19
-95 21 -375 25 l-313 5 0 -746z m592 553 c139 -30 218 -115 251 -275 20 -93
21 -462 1 -554 -30 -143 -81 -218 -177 -261 -48 -22 -67 -24 -269 -27 l-218
-4 0 566 0 566 180 0 c98 0 203 -5 232 -11z"/>
</g>
</svg>
