<?xml version="1.0" encoding="UTF-8"?>
<svg xmlns="http://www.w3.org/2000/svg" xmlns:xlink="http://www.w3.org/1999/xlink" width="48px" height="32px" viewBox="0 0 48 32" version="1.1">
<g id="surface1">
<path style="fill-rule:nonzero;fill:rgb(89.803922%,75.294119%,48.235294%);fill-opacity:1;stroke-width:1;stroke-linecap:butt;stroke-linejoin:miter;stroke:rgb(89.803922%,75.294119%,48.235294%);stroke-opacity:1;stroke-miterlimit:4;" d="M 6974.999896 9154.999864 C 6292.499906 9102.499864 5823.749913 9031.249865 5379.99992 8909.999867 C 4517.499933 8673.749871 4006.24994 8332.499876 3893.749942 7918.749882 C 3867.499942 7817.499884 3871.249942 7664.999886 3902.499942 7564.999887 C 3972.499941 7351.24989 4161.249938 7149.999893 4462.499934 6968.749896 C 4582.499932 6894.999897 4814.999928 6784.999899 5062.499925 6681.2499 C 5423.749919 6529.999903 5539.999917 6462.499904 5619.999916 6356.249905 C 5727.499915 6213.749907 5734.999915 6067.49991 5658.749916 5619.999916 C 5621.249916 5397.49992 5492.499918 4728.74993 5428.749919 4414.999934 C 5401.24992 4282.499936 5354.99992 4056.24994 5324.999921 3909.999942 C 5296.249921 3763.749944 5252.499922 3559.999947 5231.249922 3454.999949 C 5208.749922 3351.24995 5158.749923 3112.499954 5119.999924 2924.999956 C 5081.249924 2737.499959 5016.249925 2432.499964 4974.999926 2244.999967 C 4827.499928 1567.499977 4832.499928 1606.249976 4889.999927 1577.499976 C 4922.499927 1561.249977 5073.749924 1559.999977 7612.499887 1559.999977 C 10546.249843 1559.999977 10361.249846 1556.249977 10376.249845 1616.249976 C 10382.499845 1642.499976 10362.499846 1743.749974 10248.749847 2269.999966 C 10216.249848 2421.249964 10168.749848 2639.999961 10144.999849 2754.999959 C 10121.249849 2871.249957 10067.49985 3124.999953 10026.249851 3319.999951 C 9917.499852 3837.499943 9731.249855 4752.499929 9654.999856 5148.749923 C 9523.749858 5833.749913 9501.249858 6001.249911 9519.999858 6137.499909 C 9549.999858 6352.499905 9676.249856 6473.749904 10019.999851 6619.999901 C 10341.249846 6754.999899 10436.249844 6797.499899 10584.999842 6872.499898 C 10948.749837 7058.749895 11187.499833 7264.999892 11289.999832 7482.499889 C 11382.49983 7681.249886 11362.499831 7936.249882 11237.499833 8128.749879 C 11171.249834 8231.249877 11008.749836 8388.749875 10882.499838 8473.749874 C 10622.499842 8647.499871 10266.249847 8796.249869 9824.999854 8913.749867 C 9662.499856 8957.499867 9327.499861 9029.999865 9192.499863 9049.999865 C 9031.249865 9074.999865 8994.999866 9079.999865 8849.999868 9098.749864 C 8764.999869 9109.999864 8633.749871 9123.749864 8559.999872 9129.999864 C 8486.249874 9136.249864 8372.499875 9146.249864 8309.999876 9152.499864 C 8128.749879 9168.749863 7189.999893 9171.249863 6974.999896 9154.999864 Z M 8194.999878 9008.749866 C 8887.499868 8977.499866 9596.249857 8852.499868 10124.999849 8668.749871 C 10453.749844 8556.249873 10686.249841 8438.749874 10874.999838 8292.499876 C 11026.249836 8174.999878 11123.749834 8056.24988 11171.249834 7931.249882 C 11201.249833 7851.249883 11207.499833 7712.499885 11184.999833 7634.999886 C 11117.499834 7402.49989 10901.249838 7201.249893 10503.749843 7002.499896 C 10367.499846 6933.749897 10214.999848 6866.249898 10014.999851 6784.999899 C 9663.749856 6642.499901 9498.749858 6518.749903 9413.74986 6334.999906 C 9359.999861 6217.499907 9346.249861 6131.249909 9352.499861 5951.249911 C 9359.999861 5762.499914 9382.49986 5616.249916 9504.999858 4969.999926 C 9572.499857 4613.749931 9802.499854 3488.749948 9903.749852 3014.999955 C 9927.499852 2904.999957 9944.999852 2812.499958 9942.499852 2807.499958 C 9938.749852 2798.749958 5297.499921 2797.499958 5288.749921 2804.999958 C 5286.249921 2807.499958 5313.749921 2957.499956 5352.49992 3137.499953 C 5596.249917 4314.999936 5607.499916 4372.499935 5726.249915 4979.999926 C 5787.499914 5299.999921 5852.499913 5674.999915 5871.249913 5823.749913 C 5898.749912 6056.24991 5866.249913 6266.249907 5779.999914 6398.749905 C 5674.999915 6562.499902 5532.499918 6652.499901 5124.999924 6818.749898 C 4338.749935 7139.999894 4007.49994 7432.499889 4026.24994 7784.999884 C 4033.74994 7952.499881 4132.499938 8117.499879 4313.749936 8263.749877 C 4739.999929 8609.999872 5541.249917 8863.749868 6541.249903 8968.749866 C 7086.249894 9027.499865 7567.499887 9038.749865 8194.999878 9008.749866 Z M 10021.249851 2462.499963 L 10054.99985 2304.999966 L 8832.499868 2302.499966 C 8158.749878 2301.249966 7061.249895 2301.249966 6391.249905 2302.499966 L 5174.999923 2304.999966 L 5242.499922 2619.999961 L 9987.499851 2619.999961 Z M 10133.749849 1932.499971 C 10154.999849 1832.499973 10171.249848 1747.499974 10167.499848 1744.999974 C 10164.999849 1742.499974 9013.749866 1741.249974 7608.749887 1742.499974 L 5053.749925 1744.999974 L 5094.999924 1932.499971 L 5134.999923 2119.999968 L 10094.99985 2114.999968 Z M 10133.749849 1932.499971 " transform="matrix(0.003125,0,0,-0.003125,0,32)"/>
<path style="fill-rule:nonzero;fill:rgb(89.803922%,75.294119%,48.235294%);fill-opacity:1;stroke-width:1;stroke-linecap:butt;stroke-linejoin:miter;stroke:rgb(89.803922%,75.294119%,48.235294%);stroke-opacity:1;stroke-miterlimit:4;" d="M 6432.499904 8137.499879 C 6414.999904 8117.499879 6414.999904 3542.499947 6432.499904 3522.499948 C 6441.249904 3511.249948 6569.999902 3509.999948 7243.749892 3512.499948 C 8022.49988 3516.249948 8047.49988 3517.499948 8137.499879 3537.499947 C 8607.499872 3647.499946 8899.999867 3968.749941 8998.749866 4483.749933 C 9093.749864 4972.499926 9012.499866 5499.999918 8797.499869 5777.499914 C 8741.24987 5851.249913 8622.499872 5961.249911 8557.499872 6001.249911 C 8496.249873 6037.49991 8489.999873 6046.24991 8517.499873 6053.74991 C 8541.249873 6062.49991 8647.499871 6167.499908 8696.24987 6233.749907 C 8819.999869 6397.499905 8886.249868 6624.999901 8897.499867 6924.999897 C 8911.249867 7312.499891 8812.499869 7627.499886 8611.249872 7842.499883 C 8482.499874 7979.999881 8328.749876 8066.24988 8119.999879 8117.499879 L 8014.999881 8143.749879 L 7228.749892 8147.499879 C 6561.249902 8151.249879 6442.499904 8148.749879 6432.499904 8137.499879 Z M 7996.249881 7954.999881 C 8377.499875 7888.749882 8597.499872 7677.499886 8682.499871 7291.249891 C 8711.24987 7162.499893 8713.74987 6834.999898 8687.499871 6692.4999 C 8632.499871 6394.999905 8473.749874 6186.249908 8229.999877 6089.999909 L 8184.999878 6072.49991 L 8184.999878 5967.499911 L 8254.999877 5946.249911 C 8388.749875 5902.499912 8492.499873 5837.499913 8592.499872 5732.499915 C 8747.49987 5566.249917 8827.499868 5338.74992 8846.249868 5014.999925 C 8853.749868 4869.999927 8837.499868 4638.749931 8808.749869 4493.749933 C 8732.49987 4097.499939 8512.499873 3836.249943 8169.999878 3737.499944 C 8012.499881 3691.249945 7966.249881 3687.499945 7263.749892 3687.499945 L 6599.999902 3684.999945 L 6599.999902 7969.999881 L 7253.749892 7969.999881 C 7792.499884 7969.999881 7922.499882 7967.499881 7996.249881 7954.999881 Z M 7996.249881 7954.999881 " transform="matrix(0.003125,0,0,-0.003125,0,32)"/>
<path style="fill-rule:nonzero;fill:rgb(89.803922%,75.294119%,48.235294%);fill-opacity:1;stroke-width:1;stroke-linecap:butt;stroke-linejoin:miter;stroke:rgb(89.803922%,75.294119%,48.235294%);stroke-opacity:1;stroke-miterlimit:4;" d="M 7169.999893 6864.999898 L 7169.999893 6249.999907 L 7422.499889 6249.999907 C 7607.499887 6249.999907 7693.749885 6253.749907 7744.999885 6264.999907 C 7929.999882 6303.749906 8026.24988 6401.249905 8081.24988 6604.999902 C 8099.999879 6673.749901 8102.499879 6712.4999 8103.749879 6889.999897 C 8104.999879 7058.749895 8101.249879 7106.249894 8087.499879 7158.749893 C 8047.49988 7296.249891 7983.749881 7382.49989 7887.499882 7428.749889 C 7789.999884 7473.749889 7742.499885 7479.999889 7444.999889 7479.999889 L 7169.999893 7479.999889 Z M 7756.249884 7284.999891 C 7817.499884 7267.499892 7872.499883 7214.999892 7896.249882 7151.249893 C 7917.499882 7092.499894 7927.499882 6802.499899 7911.249882 6702.4999 C 7894.999882 6608.749902 7849.999883 6519.999903 7801.249884 6486.249903 C 7734.999885 6439.999904 7682.499886 6429.999904 7507.499888 6429.999904 L 7349.99989 6429.999904 L 7349.99989 7299.999891 L 7527.499888 7299.999891 C 7657.499886 7299.999891 7719.999885 7296.249891 7756.249884 7284.999891 Z M 7756.249884 7284.999891 " transform="matrix(0.003125,0,0,-0.003125,0,32)"/>
<path style="fill-rule:nonzero;fill:rgb(89.803922%,75.294119%,48.235294%);fill-opacity:1;stroke-width:1;stroke-linecap:butt;stroke-linejoin:miter;stroke:rgb(89.803922%,75.294119%,48.235294%);stroke-opacity:1;stroke-miterlimit:4;" d="M 7169.999893 4966.249926 L 7169.999893 4219.999937 L 7457.499889 4219.999937 C 7769.999884 4219.999937 7832.499883 4227.499937 7939.999882 4276.249936 C 8009.999881 4307.499936 8094.999879 4391.249935 8132.499879 4466.249933 C 8192.499878 4584.999932 8219.999878 4737.499929 8219.999878 4964.999926 C 8219.999878 5261.249922 8172.499878 5436.249919 8057.49988 5557.499917 C 7997.499881 5621.249916 7943.749882 5653.749916 7857.499883 5682.499915 C 7801.249884 5701.249915 7762.499884 5702.499915 7482.499889 5707.499915 L 7169.999893 5712.499915 Z M 7762.499884 5518.749918 C 7901.249882 5488.749918 7979.999881 5403.749919 8012.499881 5243.749922 C 8032.49988 5151.249923 8033.74988 4782.499929 8013.749881 4689.99993 C 7983.749881 4547.499932 7932.499882 4472.499933 7837.499883 4428.749934 C 7788.749884 4407.499934 7769.999884 4404.999934 7567.499887 4402.499934 L 7349.99989 4397.499934 L 7349.99989 5529.999918 L 7529.999888 5529.999918 C 7627.499886 5529.999918 7732.499885 5524.999918 7762.499884 5518.749918 Z M 7762.499884 5518.749918 " transform="matrix(0.003125,0,0,-0.003125,0,32)"/>
</g>
</svg>
