<?xml version="1.0" encoding="UTF-8"?>
<svg xmlns="http://www.w3.org/2000/svg" xmlns:xlink="http://www.w3.org/1999/xlink" width="64px" height="43px" viewBox="0 0 64 43" version="1.1">
<g id="surface1">
<path style="fill-rule:nonzero;fill:rgb(89.803922%,75.294119%,48.235294%);fill-opacity:1;stroke-width:1;stroke-linecap:butt;stroke-linejoin:miter;stroke:rgb(89.803922%,75.294119%,48.235294%);stroke-opacity:1;stroke-miterlimit:4;" d="M 6974.999896 9155.348701 C 6291.562406 9103.255678 5823.749913 9030.69754 5380.31242 8909.767309 C 4517.812433 8674.418475 4005.93744 8333.023132 3894.374942 7919.069649 C 3867.187442 7817.674302 3870.937442 7665.116165 3902.812442 7564.65105 C 3973.124941 7350.697565 4160.624938 7149.767335 4461.562434 6969.302222 C 4583.437432 6894.883618 4814.999928 6785.116178 5063.437425 6680.930133 C 5424.374919 6530.232461 5539.687417 6462.325485 5620.312416 6356.278975 C 5727.187415 6213.953396 5734.687415 6067.906886 5658.749916 5620.465033 C 5621.249916 5398.139454 5492.812418 4729.302255 5429.062419 4414.883655 C 5400.93742 4282.790634 5354.99992 4055.813893 5324.999921 3909.767384 C 5295.937421 3763.720874 5252.812422 3559.999947 5231.249922 3454.883669 C 5208.749922 3350.697624 5159.062423 3111.627861 5119.687424 2924.651119 C 5081.249924 2737.674378 5015.624925 2431.627871 4975.312426 2244.651129 C 4827.187428 1567.441837 4831.874928 1605.581371 4889.999927 1577.674395 C 4922.812427 1560.930209 5073.749924 1559.999977 7613.437387 1559.999977 C 10545.937343 1559.999977 10361.249846 1556.279047 10376.249845 1615.813929 C 10382.812345 1642.790673 10363.124846 1744.186021 10248.749847 2269.767408 C 10215.937348 2421.395313 10169.062348 2639.999961 10144.687349 2755.348796 C 10121.249849 2870.697632 10066.87485 3124.651116 10025.624851 3319.999951 C 9916.874852 3838.139478 9731.249855 4752.558069 9655.312356 5148.837133 C 9524.062358 5834.418518 9500.624858 6000.930143 9520.312358 6136.744095 C 9550.312358 6352.558045 9675.937356 6474.418508 10019.999851 6620.465018 C 10340.624846 6755.348737 10436.249844 6798.139434 10585.312342 6872.558037 C 10949.062337 7058.604546 11188.124833 7265.116171 11290.312332 7481.860354 C 11383.12483 7680.930118 11361.562331 7935.813835 11236.874833 8129.302204 C 11171.249834 8230.697552 11009.062336 8388.837084 10881.562338 8474.418478 C 10622.812342 8647.441732 10265.624847 8796.278939 9824.999854 8914.418472 C 9662.812356 8957.209169 9327.187361 9029.767307 9193.124863 9050.232423 C 9030.937365 9075.348702 8995.312366 9079.999865 8849.999868 9098.604516 C 8764.687369 9109.767306 8634.374871 9123.720794 8560.312372 9130.232422 C 8486.249874 9135.813817 8372.812375 9146.046375 8309.999876 9151.627771 C 8129.062379 9169.302189 7189.687393 9171.162654 6974.999896 9155.348701 Z M 8194.687378 9009.302191 C 8888.437368 8976.744052 9596.249857 8852.092891 10124.999849 8668.83708 C 10454.062344 8556.278942 10685.624841 8439.069642 10874.999838 8292.0929 C 11025.937336 8174.883599 11124.374834 8055.813833 11171.249834 7931.162673 C 11201.249833 7851.162674 11207.812333 7711.627792 11185.312333 7635.348723 C 11117.812334 7401.860355 10901.249838 7200.930125 10503.749843 7001.860361 C 10366.874846 6933.953385 10214.999848 6866.046409 10015.312351 6785.116178 C 9663.749856 6641.860366 9498.749858 6519.06967 9414.37486 6334.883627 C 9359.999861 6216.744093 9345.937361 6131.162699 9353.437361 5950.697586 C 9359.999861 5761.860379 9381.56236 5615.81387 9505.312358 4970.232484 C 9571.874857 4613.95342 9801.562354 3489.302274 9903.749852 3014.883676 C 9927.187352 2905.116236 9944.999852 2812.092981 9943.124852 2808.372051 C 9939.374852 2799.069726 5296.874921 2797.209261 5289.374921 2804.651121 C 5285.624921 2807.441819 5313.749921 2957.209258 5352.18742 3136.744139 C 5595.937417 4315.348773 5608.124916 4372.092958 5726.249915 4980.465042 C 5788.124914 5300.465037 5851.874913 5675.348753 5870.624913 5824.18596 C 5898.749912 6055.813863 5865.937413 6266.046418 5779.687414 6399.069672 C 5674.687415 6561.860367 5532.187418 6653.023157 5125.312424 6818.60455 C 4338.749935 7140.46501 4006.87494 7431.627796 4025.62494 7785.116163 C 4034.06244 7952.558021 4133.437438 8118.139414 4314.374936 8264.185923 C 4739.999929 8610.23243 5540.624917 8864.185914 6540.937403 8969.302192 C 7085.624894 9026.97661 7568.437387 9039.069633 8194.687378 9009.302191 Z M 10020.937351 2463.255777 L 10054.68735 2305.116245 L 8832.187368 2302.325547 C 8159.062378 2301.395315 7061.249895 2301.395315 6390.937405 2302.325547 L 5174.999923 2305.116245 L 5208.749922 2463.255777 L 5243.437422 2620.465077 L 9987.187351 2620.465077 Z M 10134.374849 1932.092994 C 10154.999849 1831.62788 10170.937348 1746.976718 10168.124848 1745.116253 C 10165.312349 1742.325555 9014.062366 1741.395323 7608.749887 1742.325555 L 5054.062425 1745.116253 L 5095.312424 1932.092994 L 5134.687423 2119.999968 L 7615.312387 2117.209271 L 10094.99985 2115.348806 Z M 10134.374849 1932.092994 " transform="matrix(0.00416667,0,0,-0.00419922,0,43)"/>
<path style="fill-rule:nonzero;fill:rgb(89.803922%,75.294119%,48.235294%);fill-opacity:1;stroke-width:1;stroke-linecap:butt;stroke-linejoin:miter;stroke:rgb(89.803922%,75.294119%,48.235294%);stroke-opacity:1;stroke-miterlimit:4;" d="M 6432.187404 8136.744065 C 6415.312404 8117.209181 6415.312404 3543.255761 6432.187404 3522.790645 C 6440.624904 3510.697622 6569.999902 3509.76739 7244.062392 3512.558087 C 8022.18738 3516.279017 8048.43738 3517.20925 8136.562379 3537.674366 C 8607.187372 3648.372039 8899.687367 3969.302266 8999.062366 4483.720863 C 9093.749864 4972.092949 9012.187366 5500.465034 8798.437369 5776.7441 C 8741.24987 5851.162704 8623.124872 5960.930144 8556.562372 6000.930143 C 8495.624873 6038.139445 8489.999873 6045.581305 8518.124873 6053.953398 C 8540.624873 6062.325491 8646.562371 6168.372001 8696.24987 6234.418512 C 8819.999869 6398.13944 8885.624868 6625.11618 8896.874867 6924.65106 C 8910.937367 7311.627798 8813.437369 7626.976631 8610.937372 7841.860348 C 8481.562374 7980.464997 8328.749876 8066.046391 8119.687379 8118.139414 L 8014.687381 8144.185925 L 7229.062392 8146.976623 C 6560.624902 8150.697553 6441.562404 8148.837088 6432.187404 8136.744065 Z M 7995.937381 7955.348719 C 8376.562375 7889.302208 8596.874872 7677.209188 8683.124871 7291.162682 C 8711.24987 7162.790591 8714.06237 6835.348735 8686.874871 6693.023156 C 8631.562371 6395.348742 8474.062374 6186.046419 8230.312377 6090.232467 L 8185.312378 6071.627817 L 8185.312378 5968.372004 L 8254.687377 5946.046423 C 8388.749875 5903.255726 8492.812373 5837.209215 8592.187372 5732.092938 C 8747.81237 5565.581312 8828.437368 5338.604572 8846.249868 5014.883646 C 8853.749868 4869.767369 8836.874868 4639.069698 8808.749869 4493.953421 C 8732.81237 4097.674358 8511.562373 3836.279013 8170.312378 3736.74413 C 8011.874881 3691.162736 7965.937381 3688.372038 7263.749892 3687.441806 L 6599.999902 3684.651108 L 6599.999902 7970.232439 L 7254.374892 7970.232439 C 7793.437384 7970.232439 7922.812382 7967.441742 7995.937381 7955.348719 Z M 7995.937381 7955.348719 " transform="matrix(0.00416667,0,0,-0.00419922,0,43)"/>
<path style="fill-rule:nonzero;fill:rgb(89.803922%,75.294119%,48.235294%);fill-opacity:1;stroke-width:1;stroke-linecap:butt;stroke-linejoin:miter;stroke:rgb(89.803922%,75.294119%,48.235294%);stroke-opacity:1;stroke-miterlimit:4;" d="M 7169.999893 6865.116177 L 7169.999893 6250.232465 L 7423.124889 6250.232465 C 7606.874887 6250.232465 7694.062385 6253.953395 7744.687385 6265.116186 C 7930.312382 6304.185953 8025.93738 6400.930137 8081.24988 6604.651064 C 8099.999879 6674.418505 8102.812379 6711.627807 8103.749879 6890.232455 C 8104.687379 7058.604546 8100.937379 7106.046406 8086.874879 7159.069661 C 8048.43738 7295.813845 7983.749881 7383.255704 7887.187382 7428.837099 C 7789.687384 7474.418493 7741.874885 7479.999889 7444.687389 7479.999889 L 7169.999893 7479.999889 Z M 7755.937384 7284.651054 C 7817.812384 7266.976636 7873.124883 7214.883613 7895.624882 7150.697568 C 7918.124882 7092.092918 7926.562382 6801.860364 7910.624882 6702.325482 C 7894.687382 6609.302227 7849.687383 6519.999903 7800.937384 6485.581299 C 7735.312385 6439.999904 7681.874886 6429.767346 7508.437388 6429.767346 L 7349.99989 6429.767346 L 7349.99989 7300.465007 L 7528.124888 7300.465007 C 7656.562386 7300.465007 7720.312385 7295.813845 7755.937384 7284.651054 Z M 7755.937384 7284.651054 " transform="matrix(0.00416667,0,0,-0.00419922,0,43)"/>
<path style="fill-rule:nonzero;fill:rgb(89.803922%,75.294119%,48.235294%);fill-opacity:1;stroke-width:1;stroke-linecap:butt;stroke-linejoin:miter;stroke:rgb(89.803922%,75.294119%,48.235294%);stroke-opacity:1;stroke-miterlimit:4;" d="M 7169.999893 4965.581321 L 7169.999893 4220.465053 L 7457.812389 4220.465053 C 7769.999884 4220.465053 7831.874883 4226.976681 7939.687382 4276.279006 C 8009.999881 4306.97668 8095.312379 4390.697609 8132.812379 4466.046445 C 8192.812378 4585.116211 8219.999878 4736.744115 8219.999878 4964.651089 C 8219.999878 5261.39527 8172.187378 5436.278989 8056.87488 5558.139452 C 7996.874881 5621.395265 7944.374882 5653.953404 7858.124883 5681.86038 C 7800.937384 5701.395264 7763.437384 5703.255729 7483.124888 5706.976659 L 7169.999893 5711.627822 Z M 7761.562384 5519.069685 C 7901.249882 5489.302244 7979.999881 5403.72085 8012.812381 5243.720852 C 8033.43738 5150.697598 8034.37488 4782.32551 8013.749881 4690.232488 C 7983.749881 4546.976676 7933.124882 4471.62784 7836.562383 4428.837143 C 7788.749884 4407.441795 7769.999884 4404.651097 7568.437387 4401.8604 L 7349.99989 4398.139469 L 7349.99989 5530.232476 L 7529.999888 5530.232476 C 7628.437386 5530.232476 7733.437385 5524.65108 7761.562384 5519.069685 Z M 7761.562384 5519.069685 " transform="matrix(0.00416667,0,0,-0.00419922,0,43)"/>
</g>
</svg>
